# File created by Blade
# Date/Time:  Tue Jan 27 18:09:10 2015
# Frame Rate: 120.000 fps
#------------------------------------------------------
:FULLY-SPECIFIED
:DEGREES
3337
root -1.616753 31.930520 -6.768780 6.473484 -3.210733 1.244487
Spine -1.465948 -25.539931 -6.835647
Head 30.955320 23.206215 11.254964
LeftShoulder -18.738910 18.841342 3.102170
LeftArm 23.821838 33.477648 -72.393066
LeftForeArm -1.257580 -0.000000 18.289186
LeftHand -11.915378 -0.000000 0.488956
LeftHandThumb1 -26.253704 0.000000 33.147579
RightShoulder -21.516761 -8.462884 -33.180865
RightArm -34.063508 66.796350 19.663996
RightForeArm 33.933796 -0.000000 72.112408
RightHand -9.606558 -0.000000 -0.314827
RightHandThumb1 -24.326973 -0.000000 -32.862282
LeftUpLeg -1.145873 5.967692 0.218852
LeftLeg 0.200874 -0.000000 -0.000000
LeftFoot -19.607624 19.689710 -25.898758
LeftToeBase 8.665097 -0.000000 -0.000000
RightUpLeg -2.471615 2.348869 -2.386091
RightLeg -1.480038 -0.000000 0.000000
RightFoot -13.045410 -9.913006 9.324863
RightToeBase 4.622035 -0.000000 -0.000000
3338
root -1.615588 31.930589 -6.766676 6.467139 -3.211421 1.245828
Spine -1.498573 -25.583369 -6.813396
Head 30.981628 23.223570 11.206629
LeftShoulder -18.718716 18.849307 3.097537
LeftArm 23.810808 33.483290 -72.417241
LeftForeArm -1.253762 0.000000 18.288766
LeftHand -11.893332 -0.000000 0.530331
LeftHandThumb1 -26.253704 0.000000 33.147579
RightShoulder -21.576155 -8.522204 -33.079372
RightArm -34.283355 66.901202 19.598494
RightForeArm 34.814644 -0.000000 73.193028
RightHand -9.812897 0.000000 -0.138576
RightHandThumb1 -24.326973 -0.000000 -32.862282
LeftUpLeg -1.134209 5.966074 0.213300
LeftLeg 0.201095 -0.000000 -0.000000
LeftFoot -19.634666 19.677229 -25.945519
LeftToeBase 8.705742 -0.000000 -0.000000
RightUpLeg -2.445584 2.431047 -2.399267
RightLeg -1.513040 -0.000000 0.000000
RightFoot -13.043014 -9.967061 9.355388
RightToeBase 4.804815 -0.000000 -0.000000
3339
root -1.613848 31.930789 -6.764548 6.457536 -3.216703 1.248036
Spine -1.520500 -25.629678 -6.791419
Head 30.989379 23.264285 11.159730
LeftShoulder -18.725557 18.847434 3.083246
LeftArm 23.799856 33.495890 -72.433218
LeftForeArm -1.223017 -0.000000 18.315295
LeftHand -11.950608 0.000000 0.552236
LeftHandThumb1 -26.253704 0.000000 33.147579
RightShoulder -21.634589 -8.547386 -32.980734
RightArm -34.472539 66.919310 19.556349
RightForeArm 35.086948 -0.000000 74.342483
RightHand -9.854750 0.000000 -0.540590
RightHandThumb1 -24.326973 -0.000000 -32.862282
LeftUpLeg -1.120388 5.989472 0.213263
LeftLeg 0.196330 -0.000000 -0.000000
LeftFoot -19.607964 19.654849 -25.909072
LeftToeBase 8.728966 -0.000000 -0.000000
RightUpLeg -2.450406 2.395923 -2.397756
RightLeg -1.476000 -0.000000 0.000000
RightFoot -13.060797 -9.941868 9.342848
RightToeBase 4.655648 -0.000000 -0.000000
3340
root -1.611680 31.931152 -6.762387 6.442811 -3.221545 1.252759
Spine -1.540197 -25.684660 -6.765400
Head 30.989579 23.312431 11.091904
LeftShoulder -18.730607 18.840848 3.062754
LeftArm 23.777268 33.499621 -72.454024
LeftForeArm -1.187991 0.000000 18.325191
LeftHand -11.937536 -0.000000 0.524888
LeftHandThumb1 -26.253704 0.000000 33.147579
RightShoulder -21.702215 -8.582275 -32.886614
RightArm -34.614814 66.960030 19.587626
RightForeArm 35.448899 -0.000000 75.615464
RightHand -9.712837 -0.000000 0.089538
RightHandThumb1 -24.326973 -0.000000 -32.862282
LeftUpLeg -1.099050 5.992554 0.204802
LeftLeg 0.190018 -0.000000 -0.000000
LeftFoot -19.594012 19.676607 -25.884066
LeftToeBase 8.689251 -0.000000 -0.000000
RightUpLeg -2.436413 2.414719 -2.406821
RightLeg -1.468907 -0.000000 0.000000
RightFoot -13.057203 -9.956449 9.335093
RightToeBase 4.584159 -0.000000 -0.000000
3341
root -1.609360 31.931088 -6.760408 6.427845 -3.220672 1.257378
Spine -1.567638 -25.748649 -6.725402
Head 31.009699 23.387646 11.030953
LeftShoulder -18.733738 18.836116 3.041156
LeftArm 23.758161 33.521288 -72.466490
LeftForeArm -1.192132 0.000000 18.325023
LeftHand -11.878141 -0.000000 0.440621
LeftHandThumb1 -26.253704 0.000000 33.147579
RightShoulder -21.788407 -8.691633 -32.795061
RightArm -34.668280 67.160167 19.718255
RightForeArm 35.900810 0.000000 76.992712
RightHand -9.796466 -0.000000 0.148563
RightHandThumb1 -24.326973 -0.000000 -32.862282
LeftUpLeg -1.080629 5.979606 0.195805
LeftLeg 0.196238 -0.000000 -0.000000
LeftFoot -19.629135 19.660533 -25.950666
LeftToeBase 8.683853 -0.000000 -0.000000
RightUpLeg -2.408788 2.379119 -2.410344
RightLeg -1.485752 -0.000000 0.000000
RightFoot -13.057298 -9.938231 9.305984
RightToeBase 4.661000 -0.000000 -0.000000
3342
root -1.607966 31.931361 -6.757576 6.405268 -3.234985 1.260705
Spine -1.586004 -25.788155 -6.700024
Head 31.015383 23.432226 10.979492
LeftShoulder -18.740563 18.828454 3.028308
LeftArm 23.745071 33.562839 -72.470175
LeftForeArm -1.185960 -0.000000 18.330751
LeftHand -12.013375 -0.000000 0.789550
LeftHandThumb1 -26.253704 0.000000 33.147579
RightShoulder -21.851897 -8.705309 -32.686721
RightArm -34.894013 67.384070 19.652160
RightForeArm 36.402783 -0.000000 78.488915
RightHand -9.827670 -0.000000 0.078228
RightHandThumb1 -24.326973 -0.000000 -32.862282
LeftUpLeg -1.049390 5.996899 0.189139
LeftLeg 0.190572 -0.000000 -0.000000
LeftFoot -19.637281 19.657310 -25.971546
LeftToeBase 8.720017 -0.000000 -0.000000
RightUpLeg -2.383253 2.406650 -2.418233
RightLeg -1.485356 -0.000000 0.000000
RightFoot -13.052439 -9.954386 9.304519
RightToeBase 4.653077 -0.000000 -0.000000
3343
root -1.606944 31.931292 -6.755592 6.389599 -3.247157 1.259745
Spine -1.614726 -25.839171 -6.656387
Head 31.027632 23.503595 10.942458
LeftShoulder -18.751088 18.820201 3.009419
LeftArm 23.726666 33.592741 -72.478309
LeftForeArm -1.199561 -0.000000 18.324764
LeftHand -12.005612 -0.000000 0.819403
LeftHandThumb1 -26.253704 0.000000 33.147579
RightShoulder -21.870348 -8.572093 -32.634529
RightArm -35.476517 67.257172 19.218924
RightForeArm 36.791979 0.000000 80.058779
RightHand -9.951024 -0.000000 0.227102
RightHandThumb1 -24.326973 -0.000000 -32.862282
LeftUpLeg -1.027735 5.993215 0.189468
LeftLeg 0.188542 -0.000000 -0.000000
LeftFoot -19.656902 19.672959 -25.978534
LeftToeBase 8.732522 -0.000000 -0.000000
RightUpLeg -2.375142 2.481309 -2.428890
RightLeg -1.468230 -0.000000 0.000000
RightFoot -13.074208 -9.981911 9.346313
RightToeBase 4.660486 -0.000000 -0.000000
3344
root -1.604806 31.931225 -6.753785 6.366085 -3.256314 1.261127
Spine -1.626859 -25.873893 -6.614188
Head 31.007271 23.571752 10.895441
LeftShoulder -18.760677 18.817875 2.987991
LeftArm 23.752221 33.639351 -72.457985
LeftForeArm -1.213031 0.000000 18.290778
LeftHand -11.824087 -0.000000 0.500834
LeftHandThumb1 -26.253704 0.000000 33.147579
RightShoulder -21.984485 -8.602348 -32.534496
RightArm -35.609149 67.434271 19.223861
RightForeArm 37.130517 -0.000000 81.667485
RightHand -9.648808 -0.000000 0.321531
RightHandThumb1 -24.326973 -0.000000 -32.862282
LeftUpLeg -0.997017 5.998649 0.188146
LeftLeg 0.177738 -0.000000 -0.000000
LeftFoot -19.619573 19.692897 -25.901868
LeftToeBase 8.688749 -0.000000 -0.000000
RightUpLeg -2.344898 2.526988 -2.436930
RightLeg -1.479149 -0.000000 0.000000
RightFoot -13.077256 -10.012769 9.357690
RightToeBase 4.659279 -0.000000 -0.000000
3345
root -1.603464 31.930852 -6.752669 6.351442 -3.263701 1.265973
Spine -1.654373 -25.903413 -6.576790
Head 30.998907 23.642053 10.862098
LeftShoulder -18.748286 18.801585 2.992337
LeftArm 23.732929 33.685443 -72.472540
LeftForeArm -1.227866 0.000000 18.277383
LeftHand -11.822453 -0.000000 0.479242
LeftHandThumb1 -26.253704 0.000000 33.147579
RightShoulder -22.074959 -8.629854 -32.436111
RightArm -35.691405 67.702746 19.268814
RightForeArm 37.492749 -0.000000 83.393507
RightHand -9.562304 -0.000000 0.129598
RightHandThumb1 -24.326973 -0.000000 -32.862282
LeftUpLeg -0.981838 6.006774 0.182818
LeftLeg 0.187241 -0.000000 -0.000000
LeftFoot -19.638468 19.664839 -25.937894
LeftToeBase 8.720047 -0.000000 -0.000000
RightUpLeg -2.326748 2.536191 -2.445398
RightLeg -1.483449 -0.000000 0.000000
RightFoot -13.079868 -9.993246 9.370737
RightToeBase 4.621366 -0.000000 -0.000000
3346
root -1.602292 31.931015 -6.749797 6.321978 -3.274946 1.272157
Spine -1.680020 -25.946609 -6.538508
Head 31.009989 23.714792 10.808643
LeftShoulder -18.754234 18.793438 2.977376
LeftArm 23.716871 33.727318 -72.476740
LeftForeArm -1.232944 -0.000000 18.258201
LeftHand -11.841345 0.000000 0.481639
LeftHandThumb1 -26.253704 0.000000 33.147579
RightShoulder -22.171998 -8.806757 -32.292847
RightArm -35.629244 68.005067 19.458022
RightForeArm 37.842496 -0.000000 85.193152
RightHand -9.323245 -0.000000 -0.008826
RightHandThumb1 -24.326973 -0.000000 -32.862282
LeftUpLeg -0.941048 5.998517 0.178150
LeftLeg 0.175502 -0.000000 -0.000000
LeftFoot -19.632962 19.683869 -25.924746
LeftToeBase 8.681590 -0.000000 -0.000000
RightUpLeg -2.291363 2.558532 -2.453526
RightLeg -1.492161 -0.000000 0.000000
RightFoot -13.082755 -10.011313 9.376690
RightToeBase 4.768904 -0.000000 -0.000000
3347
root -1.599909 31.931792 -6.749461 6.306244 -3.286851 1.278981
Spine -1.730979 -25.978956 -6.501252
Head 31.077228 23.756385 10.806909
LeftShoulder -18.723905 18.832482 2.977297
LeftArm 23.739621 33.739472 -72.485395
LeftForeArm -1.228715 -0.000000 18.218247
LeftHand -11.873138 -0.000000 0.432456
LeftHandThumb1 -26.253704 0.000000 33.147579
RightShoulder -22.192481 -8.821704 -32.192715
RightArm -36.005375 68.176114 19.202789
RightForeArm 38.191159 -0.000000 87.082579
RightHand -9.199775 -0.000000 0.049743
RightHandThumb1 -24.326973 -0.000000 -32.862282
LeftUpLeg -0.926434 5.995430 0.163329
LeftLeg 0.184892 -0.000000 -0.000000
LeftFoot -19.666654 19.696545 -25.975621
LeftToeBase 8.761584 -0.000000 -0.000000
RightUpLeg -2.278510 2.566625 -2.466098
RightLeg -1.489030 -0.000000 0.000000
RightFoot -13.079290 -9.997478 9.379397
RightToeBase 4.658182 -0.000000 -0.000000
3348
root -1.598758 31.931273 -6.748526 6.285952 -3.299516 1.281741
Spine -1.755737 -25.991646 -6.453047
Head 31.049079 23.795981 10.742389
LeftShoulder -18.719076 18.824545 2.969615
LeftArm 23.742269 33.787549 -72.480036
LeftForeArm -1.256161 -0.000000 18.202802
LeftHand -11.872979 -0.000000 0.401431
LeftHandThumb1 -26.253704 0.000000 33.147579
RightShoulder -22.284709 -8.713934 -32.121404
RightArm -36.312590 68.130363 18.966587
RightForeArm 38.282433 -0.000000 89.034707
RightHand -9.038912 -0.000000 -0.053268
RightHandThumb1 -24.326973 -0.000000 -32.862282
LeftUpLeg -0.906395 6.014968 0.159389
LeftLeg 0.193127 -0.000000 -0.000000
LeftFoot -19.676500 19.680519 -25.986729
LeftToeBase 8.739627 -0.000000 -0.000000
RightUpLeg -2.258283 2.583754 -2.470830
RightLeg -1.487924 -0.000000 0.000000
RightFoot -13.081660 -10.008559 9.378098
RightToeBase 4.643689 -0.000000 -0.000000
3349
root -1.597316 31.930835 -6.746565 6.266238 -3.316275 1.286522
Spine -1.799938 -26.017980 -6.399916
Head 31.063120 23.855283 10.695550
LeftShoulder -18.716459 18.822492 2.964544
LeftArm 23.723873 33.821666 -72.494071
LeftForeArm -1.244147 -0.000000 18.186354
LeftHand -11.918481 -0.000000 0.386779
LeftHandThumb1 -26.253704 0.000000 33.147579
RightShoulder -22.359436 -8.669128 -32.052598
RightArm -36.555450 68.210425 18.786187
RightForeArm 38.380291 -0.000000 91.025898
RightHand -8.727741 -0.000000 -0.021728
RightHandThumb1 -24.326973 -0.000000 -32.862282
LeftUpLeg -0.877867 6.010457 0.156040
LeftLeg 0.180771 -0.000000 -0.000000
LeftFoot -19.665685 19.702338 -25.950048
LeftToeBase 8.729870 -0.000000 -0.000000
RightUpLeg -2.232740 2.614662 -2.481201
RightLeg -1.499003 -0.000000 0.000000
RightFoot -13.087062 -10.024707 9.359243
RightToeBase 4.645788 -0.000000 -0.000000
